# xmcd
#
# Track frame offsets: 
#        150
#        3355
#        13834
#        21612
#        37351
#        50261
#        57887
#        71898
#        76476
#        90412
#        101301
#        114263
#        121561
#        132257
#        142257
#        152429
#        157212
#        162023
#        174727
#        182102
#        194889
#        205107
#        217922
#        229250
#        244613
#        264033
#        270696
#        277745
#        292109
#        303074
#        314647
#        325255
#        330553
#        341629
#        350130
#
# Disc length: 4798 seconds
#
# Revision: 0
# Processed by: cddbd v1.5.2PL0 Copyright (c) Steve Scherf et al.
# Submitted via: ExactAudioCopy v1.0b1
#
DISCID=0412bc23
DTITLE=DJ Wizzl - The German Kingz Vol.1
DYEAR=2007
DGENRE=Hip-Hop
TTITLE0=Intro
TTITLE1=Fler - 100 bars
TTITLE2=Sido mit Kitty Cat - Mach keine Faxen
TTITLE3=MC Bogy mit: B-Tight and MC Basstard - Rap Veteran
TTITLE4=Alpa Gun - Ufuk Diss
TTITLE5=G-Hot - Rette sich wer kann
TTITLE6=MOK - Alleine (Bushido Diss)
TTITLE7=B-Tight feat. MOK - F+++parade II
TTITLE8=B-Tight feat. Frauenarzt - X-tasy
TTITLE9=Virus - Sone Frauen (Exklusiv)
TTITLE10=Automatikk - Eiskalt (Exkusiv)
TTITLE11=King Orgasmus One feat. Godsilla - Game Over
TTITLE12=Massiv - Ghettolied
TTITLE13=MC Bogy feat. Mini Marc - Meine Kohle
TTITLE14=Deso Dogg - Ambitionen als Ridah
TTITLE15=Lady Scar - Psychofrau
TTITLE16=Fler - Das ist los
TTITLE17=Bassuka feat. Magnum 45 - Nachwuchschance
TTITLE18=P.T.O - German Kingz
TTITLE19=4.9.0 - Für Immer
TTITLE20=Schlafwandler - Ueberal ist es fast gleich (SDBY Remix Pt. 2)
TTITLE21=Gino Casino feat. Reason - Sags in mein Gesicht
TTITLE22=Sera Finale - Dreams
TTITLE23=KAISA - Keine Wärme
TTITLE24=Mastino - Godfella Sonate
TTITLE25=Clickx - Hassliebe
TTITLE26=Keskin - Wodka an der Bar
TTITLE27=Killa Cenk aka Yugo Betrugo - Kein Spiel
TTITLE28=Megaloh and Sprachtot mit: Frauenarzt - Geh nach Haus
TTITLE29=Frauenarzt feat. Manny Marc - Hunnies im Club
TTITLE30=Basstard and DJ Korx - Ihr könnt uns hassen
TTITLE31=Blokkmonsta, Uzi and Dr. Faustus - Abschaum der Gesellschaft
TTITLE32=Aci Krank and Boxxxstar - Es geht um mehr
TTITLE33=Mastino - Ghettokrieg
TTITLE34=NAZAR feat. Emirez and RAF- Streetfigther
EXTD=
EXTT0=
EXTT1=
EXTT2=
EXTT3=
EXTT4=
EXTT5=
EXTT6=
EXTT7=
EXTT8=
EXTT9=
EXTT10=
EXTT11=
EXTT12=
EXTT13=
EXTT14=
EXTT15=
EXTT16=
EXTT17=
EXTT18=
EXTT19=
EXTT20=
EXTT21=
EXTT22=
EXTT23=
EXTT24=
EXTT25=
EXTT26=
EXTT27=
EXTT28=
EXTT29=
EXTT30=
EXTT31=
EXTT32=
EXTT33=
EXTT34=
PLAYORDER=
